<svg version="1" xmlns="http://www.w3.org/2000/svg" width="682.667" height="682.667" viewBox="0 0 512.000000 512.000000"><path d="M82.5.7C74.7 2.3 64.4 5.2 60.1 7L55 9.2l41 41c22.6 22.6 41 41.3 41 41.7 0 1-37.6 38.1-38.6 38.1-.5 0-19.3-18.4-41.8-40.9C34 66.5 15.3 48.3 14.8 48.6c-.9.6-4.3 8-6.4 14.3C4.2 75.3 3 94.2 5.6 107.7c6.5 34.4 30.2 61.9 63.3 73.3 11.4 3.9 22.1 5.3 35.4 4.7l10.9-.5-4 4.2-4 4.1 92.8 92.7 92.7 92.6 3.9-3.9c2.1-2.1 4.2-3.9 4.6-3.9.8 0 14.6 13.6 17.6 17.3 1.2 1.4.9 2.1-2.2 5l-3.6 3.5 57.7 57.6 57.6 57.7 3.3-3.3c1.8-1.8 3.4-3.9 3.4-4.5 0-.7.4-1.2.8-1 .5.1 7.9-6.8 16.5-15.4 8.6-8.6 15.9-15.4 16.2-15.1.3.3.5.1.5-.5 0-1.3 19.2-20.8 20.3-20.5.4.1.7-.3.7-.8 0-1.1 2.2-3.5 6.4-6.8 1.6-1.2 2.6-2.2 2.2-2.2-.3 0 1.9-2.4 4.9-5.4l5.5-5.3-4-4.2c-2.2-2.2-4.4-4.1-5-4.1-.5 0-1-.4-1-1 0-1.3-31.7-33-33-33-.5 0-1-.5-1-1 0-1.3-19.7-21-21-21-.6 0-1-.5-1-1 0-1.3-31.7-33-33-33-.6 0-1-.4-1-1 0-1.2-101.9-103-103.1-103-.5 0-.8-.3-.7-.8.3-1-84-85.2-85.4-85.2-.6 0-.9-.3-.5-.6.3-.3-6.3-7.3-14.6-15.6l-15.1-15-.1-16.1c-.2-17.5-.4-18.4-4.1-29.7-5.1-15.3-12.8-27.4-24.7-39.1-11.8-11.6-29.6-21.4-44.2-24.3-1.6-.4-4.1-.9-5.5-1.2C108 .7 85.3.1 82.5.7zm77.9 55.4l13 13-5.9 5.9-6 6-13.2-13.2L135 54.5l5.7-5.7c3.2-3.2 6-5.8 6.3-5.8.3 0 6.3 5.9 13.4 13.1zM56.8 131.4c9.3 9.4 14 14.8 13.6 15.7-.3.8-2.3 2.8-4.3 4.6l-3.7 3.2L47.5 140l-14.9-14.9 4-4c2.1-2.3 4.4-4.1 4.9-4.1.6 0 7.4 6.5 15.3 14.4z"/></svg>